<svg xmlns="http://www.w3.org/2000/svg" width="400" height="340"><linearGradient id="grad1" x1="0%" y1="0%" x2="100%" y2="0%"><stop offset="0%" style="stop-color:#3c5f07;stop-opacity:1" /><stop offset="100%" style="stop-color:#159e9e;stop-opacity:1" /></linearGradient><path fill="url(#grad1)" d="M303.71781743920917,269.1869049795429C300.5223142938407,280.2269929596056,270.01040426330763,283.4702567362176,255.72253509835676,286.2405278803763C241.43466593340588,289.010799024535,233.1949279692951,276.8515110698846,217.9906024495039,285.8085318444951C202.78627692971273,294.7655526191056,177.04712432605118,341.01177356085947,164.49658197960972,339.9826525280392C151.94603963316825,338.9535314952189,149.2418942366322,296.1460997383854,142.68734837085506,279.6338056475734C136.13280250507793,263.12151155676145,123.8806343094976,253.29540610796084,125.16930678494697,240.90888798316757C126.45797926039634,228.5223698583743,146.44334809994774,217.80262452207106,150.4193832235513,205.31469689881376C154.39541834715487,192.82676927555647,146.11225216737407,182.03565146813875,149.02551752656828,165.98132224362377C151.9387828857625,149.92699301910878,156.03433901221013,114.00467314523223,167.89897537871664,108.98872155172377C179.76361174522316,103.97276995821531,201.79567467091283,133.90067744329747,220.2133357256073,135.88561268257297C238.63099678030176,137.87054792184847,259.5074202126353,117.6908481754712,278.4049417068834,120.89833298737679C297.3024632011315,124.10581779928238,334.1833626471487,138.6135770519026,333.59846469109607,155.1305215540065C333.0135667350434,171.64746605611037,279.87566184588206,200.99060276241062,274.89555397056756,220C269.91544609525306,239.00939723758938,306.91332058457766,258.14681699948017,303.71781743920917,269.1869049795429" stroke="none" stroke-width="3"/></svg>