<svg xmlns="http://www.w3.org/2000/svg" width="400" height="340"><linearGradient id="grad1" x1="0%" y1="0%" x2="100%" y2="0%"><stop offset="0%" style="stop-color:#00FFFF;stop-opacity:1" /><stop offset="100%" style="stop-color:#00BFFF;stop-opacity:1" /></linearGradient><path fill="url(#grad1)" d="M313.4737862140417,266.06949779997433C311.3821098042897,276.1407453760152,276.9308467243082,273.56695317611536,264.4091522915521,280.4274854562452C251.88745785879604,287.2880177363751,248.57301563936284,306.2558212494543,238.34361961750525,307.2326914807535C228.11422359564767,308.2095617120527,214.11896253658955,289.8077488997598,203.03277616040654,286.2887068440403C191.94658978422353,282.76966478832077,184.66695163523195,286.9937596801118,171.82650136040712,286.11843914643634C158.9860510855823,285.2431186127609,137.02033175546038,288.35963200931474,125.9900745114576,281.03678364198765C114.95981726745482,273.71393527466057,105.4224315759106,255.28299027124257,105.64495789639044,242.18134894247368C105.86748421687028,229.07970761370478,118.59516467426525,212.41745767640327,127.3252324343367,202.42693566937436C136.05530019440815,192.43641366234544,153.12375216428487,194.685680970135,158.02536445681915,182.2382169003001C162.92697674935343,169.7907528304652,149.4262928651948,134.3293140664534,156.73490618954241,127.74215125036503C164.04351951389003,121.15498843427665,187.58654598063853,143.99837988997842,201.87704440290483,142.7152400037698C216.16754282517113,141.43210011756116,227.92408948299453,121.82258303580316,242.47789672314016,120.04331193311333C257.0317039632858,118.2640408304235,280.5491512055157,121.64173668682562,289.1998878437787,132.03961338763082C297.85062448204167,142.43749008843602,296.4224294016705,167.77050770254965,294.38231655271807,182.43057213794452C292.3422037037656,197.0906365733394,273.77729913984354,206.06017905632837,276.95921075006413,220C280.1411223602847,233.93982094367163,315.5654626237937,255.99825022393347,313.4737862140417,266.06949779997433" stroke="none" stroke-width="3"/></svg>